<?xml version="1.0" encoding="utf-8" standalone="no"?>
<!DOCTYPE svg PUBLIC "-//W3C//DTD SVG 1.1//EN"
  "http://www.w3.org/Graphics/SVG/1.1/DTD/svg11.dtd">
<!-- Created with matplotlib (https://matplotlib.org/) -->
<svg height="432pt" version="1.1" viewBox="0 0 720 432" width="720pt" xmlns="http://www.w3.org/2000/svg" xmlns:xlink="http://www.w3.org/1999/xlink">
 <defs>
  <style type="text/css">
*{stroke-linecap:butt;stroke-linejoin:round;}
  </style>
 </defs>
 <g id="figure_1">
  <g id="patch_1">
   <path d="M 0 432 
L 720 432 
L 720 0 
L 0 0 
z
" style="fill:#ffffff;"/>
  </g>
  <g id="axes_1">
   <g id="patch_2">
    <path d="M 82.885 357.24 
L 692.74 357.24 
L 692.74 31.907137 
L 82.885 31.907137 
z
" style="fill:#ffffff;"/>
   </g>
   <g id="matplotlib.axis_1">
    <g id="xtick_1">
     <g id="line2d_1">
      <path clip-path="url(#p738504d449)" d="M 110.605682 357.24 
L 110.605682 31.907137 
" style="fill:none;stroke:#b0b0b0;stroke-dasharray:1,1.65;stroke-dashoffset:0;"/>
     </g>
     <g id="line2d_2">
      <defs>
       <path d="M 0 0 
L 0 3.5 
" id="m634e09f69c" style="stroke:#000000;stroke-width:0.8;"/>
      </defs>
      <g>
       <use style="stroke:#000000;stroke-width:0.8;" x="110.605682" xlink:href="#m634e09f69c" y="357.24"/>
      </g>
     </g>
     <g id="text_1">
      <!-- 0 -->
      <defs>
       <path d="M 31.78125 66.40625 
Q 24.171875 66.40625 20.328125 58.90625 
Q 16.5 51.421875 16.5 36.375 
Q 16.5 21.390625 20.328125 13.890625 
Q 24.171875 6.390625 31.78125 6.390625 
Q 39.453125 6.390625 43.28125 13.890625 
Q 47.125 21.390625 47.125 36.375 
Q 47.125 51.421875 43.28125 58.90625 
Q 39.453125 66.40625 31.78125 66.40625 
z
M 31.78125 74.21875 
Q 44.046875 74.21875 50.515625 64.515625 
Q 56.984375 54.828125 56.984375 36.375 
Q 56.984375 17.96875 50.515625 8.265625 
Q 44.046875 -1.421875 31.78125 -1.421875 
Q 19.53125 -1.421875 13.0625 8.265625 
Q 6.59375 17.96875 6.59375 36.375 
Q 6.59375 54.828125 13.0625 64.515625 
Q 19.53125 74.21875 31.78125 74.21875 
z
" id="DejaVuSans-48"/>
      </defs>
      <g transform="translate(103.606932 380.956563)scale(0.22 -0.22)">
       <use xlink:href="#DejaVuSans-48"/>
      </g>
     </g>
    </g>
    <g id="xtick_2">
     <g id="line2d_3">
      <path clip-path="url(#p738504d449)" d="M 221.488409 357.24 
L 221.488409 31.907137 
" style="fill:none;stroke:#b0b0b0;stroke-dasharray:1,1.65;stroke-dashoffset:0;"/>
     </g>
     <g id="line2d_4">
      <g>
       <use style="stroke:#000000;stroke-width:0.8;" x="221.488409" xlink:href="#m634e09f69c" y="357.24"/>
      </g>
     </g>
     <g id="text_2">
      <!-- 10 -->
      <defs>
       <path d="M 12.40625 8.296875 
L 28.515625 8.296875 
L 28.515625 63.921875 
L 10.984375 60.40625 
L 10.984375 69.390625 
L 28.421875 72.90625 
L 38.28125 72.90625 
L 38.28125 8.296875 
L 54.390625 8.296875 
L 54.390625 0 
L 12.40625 0 
z
" id="DejaVuSans-49"/>
      </defs>
      <g transform="translate(207.490909 380.956563)scale(0.22 -0.22)">
       <use xlink:href="#DejaVuSans-49"/>
       <use x="63.623047" xlink:href="#DejaVuSans-48"/>
      </g>
     </g>
    </g>
    <g id="xtick_3">
     <g id="line2d_5">
      <path clip-path="url(#p738504d449)" d="M 332.371136 357.24 
L 332.371136 31.907137 
" style="fill:none;stroke:#b0b0b0;stroke-dasharray:1,1.65;stroke-dashoffset:0;"/>
     </g>
     <g id="line2d_6">
      <g>
       <use style="stroke:#000000;stroke-width:0.8;" x="332.371136" xlink:href="#m634e09f69c" y="357.24"/>
      </g>
     </g>
     <g id="text_3">
      <!-- 20 -->
      <defs>
       <path d="M 19.1875 8.296875 
L 53.609375 8.296875 
L 53.609375 0 
L 7.328125 0 
L 7.328125 8.296875 
Q 12.9375 14.109375 22.625 23.890625 
Q 32.328125 33.6875 34.8125 36.53125 
Q 39.546875 41.84375 41.421875 45.53125 
Q 43.3125 49.21875 43.3125 52.78125 
Q 43.3125 58.59375 39.234375 62.25 
Q 35.15625 65.921875 28.609375 65.921875 
Q 23.96875 65.921875 18.8125 64.3125 
Q 13.671875 62.703125 7.8125 59.421875 
L 7.8125 69.390625 
Q 13.765625 71.78125 18.9375 73 
Q 24.125 74.21875 28.421875 74.21875 
Q 39.75 74.21875 46.484375 68.546875 
Q 53.21875 62.890625 53.21875 53.421875 
Q 53.21875 48.921875 51.53125 44.890625 
Q 49.859375 40.875 45.40625 35.40625 
Q 44.1875 33.984375 37.640625 27.21875 
Q 31.109375 20.453125 19.1875 8.296875 
z
" id="DejaVuSans-50"/>
      </defs>
      <g transform="translate(318.373636 380.956563)scale(0.22 -0.22)">
       <use xlink:href="#DejaVuSans-50"/>
       <use x="63.623047" xlink:href="#DejaVuSans-48"/>
      </g>
     </g>
    </g>
    <g id="xtick_4">
     <g id="line2d_7">
      <path clip-path="url(#p738504d449)" d="M 443.253864 357.24 
L 443.253864 31.907137 
" style="fill:none;stroke:#b0b0b0;stroke-dasharray:1,1.65;stroke-dashoffset:0;"/>
     </g>
     <g id="line2d_8">
      <g>
       <use style="stroke:#000000;stroke-width:0.8;" x="443.253864" xlink:href="#m634e09f69c" y="357.24"/>
      </g>
     </g>
     <g id="text_4">
      <!-- 30 -->
      <defs>
       <path d="M 40.578125 39.3125 
Q 47.65625 37.796875 51.625 33 
Q 55.609375 28.21875 55.609375 21.1875 
Q 55.609375 10.40625 48.1875 4.484375 
Q 40.765625 -1.421875 27.09375 -1.421875 
Q 22.515625 -1.421875 17.65625 -0.515625 
Q 12.796875 0.390625 7.625 2.203125 
L 7.625 11.71875 
Q 11.71875 9.328125 16.59375 8.109375 
Q 21.484375 6.890625 26.8125 6.890625 
Q 36.078125 6.890625 40.9375 10.546875 
Q 45.796875 14.203125 45.796875 21.1875 
Q 45.796875 27.640625 41.28125 31.265625 
Q 36.765625 34.90625 28.71875 34.90625 
L 20.21875 34.90625 
L 20.21875 43.015625 
L 29.109375 43.015625 
Q 36.375 43.015625 40.234375 45.921875 
Q 44.09375 48.828125 44.09375 54.296875 
Q 44.09375 59.90625 40.109375 62.90625 
Q 36.140625 65.921875 28.71875 65.921875 
Q 24.65625 65.921875 20.015625 65.03125 
Q 15.375 64.15625 9.8125 62.3125 
L 9.8125 71.09375 
Q 15.4375 72.65625 20.34375 73.4375 
Q 25.25 74.21875 29.59375 74.21875 
Q 40.828125 74.21875 47.359375 69.109375 
Q 53.90625 64.015625 53.90625 55.328125 
Q 53.90625 49.265625 50.4375 45.09375 
Q 46.96875 40.921875 40.578125 39.3125 
z
" id="DejaVuSans-51"/>
      </defs>
      <g transform="translate(429.256364 380.956563)scale(0.22 -0.22)">
       <use xlink:href="#DejaVuSans-51"/>
       <use x="63.623047" xlink:href="#DejaVuSans-48"/>
      </g>
     </g>
    </g>
    <g id="xtick_5">
     <g id="line2d_9">
      <path clip-path="url(#p738504d449)" d="M 554.136591 357.24 
L 554.136591 31.907137 
" style="fill:none;stroke:#b0b0b0;stroke-dasharray:1,1.65;stroke-dashoffset:0;"/>
     </g>
     <g id="line2d_10">
      <g>
       <use style="stroke:#000000;stroke-width:0.8;" x="554.136591" xlink:href="#m634e09f69c" y="357.24"/>
      </g>
     </g>
     <g id="text_5">
      <!-- 40 -->
      <defs>
       <path d="M 37.796875 64.3125 
L 12.890625 25.390625 
L 37.796875 25.390625 
z
M 35.203125 72.90625 
L 47.609375 72.90625 
L 47.609375 25.390625 
L 58.015625 25.390625 
L 58.015625 17.1875 
L 47.609375 17.1875 
L 47.609375 0 
L 37.796875 0 
L 37.796875 17.1875 
L 4.890625 17.1875 
L 4.890625 26.703125 
z
" id="DejaVuSans-52"/>
      </defs>
      <g transform="translate(540.139091 380.956563)scale(0.22 -0.22)">
       <use xlink:href="#DejaVuSans-52"/>
       <use x="63.623047" xlink:href="#DejaVuSans-48"/>
      </g>
     </g>
    </g>
    <g id="xtick_6">
     <g id="line2d_11">
      <path clip-path="url(#p738504d449)" d="M 665.019318 357.24 
L 665.019318 31.907137 
" style="fill:none;stroke:#b0b0b0;stroke-dasharray:1,1.65;stroke-dashoffset:0;"/>
     </g>
     <g id="line2d_12">
      <g>
       <use style="stroke:#000000;stroke-width:0.8;" x="665.019318" xlink:href="#m634e09f69c" y="357.24"/>
      </g>
     </g>
     <g id="text_6">
      <!-- 50 -->
      <defs>
       <path d="M 10.796875 72.90625 
L 49.515625 72.90625 
L 49.515625 64.59375 
L 19.828125 64.59375 
L 19.828125 46.734375 
Q 21.96875 47.46875 24.109375 47.828125 
Q 26.265625 48.1875 28.421875 48.1875 
Q 40.625 48.1875 47.75 41.5 
Q 54.890625 34.8125 54.890625 23.390625 
Q 54.890625 11.625 47.5625 5.09375 
Q 40.234375 -1.421875 26.90625 -1.421875 
Q 22.3125 -1.421875 17.546875 -0.640625 
Q 12.796875 0.140625 7.71875 1.703125 
L 7.71875 11.625 
Q 12.109375 9.234375 16.796875 8.0625 
Q 21.484375 6.890625 26.703125 6.890625 
Q 35.15625 6.890625 40.078125 11.328125 
Q 45.015625 15.765625 45.015625 23.390625 
Q 45.015625 31 40.078125 35.4375 
Q 35.15625 39.890625 26.703125 39.890625 
Q 22.75 39.890625 18.8125 39.015625 
Q 14.890625 38.140625 10.796875 36.28125 
z
" id="DejaVuSans-53"/>
      </defs>
      <g transform="translate(651.021818 380.956563)scale(0.22 -0.22)">
       <use xlink:href="#DejaVuSans-53"/>
       <use x="63.623047" xlink:href="#DejaVuSans-48"/>
      </g>
     </g>
    </g>
    <g id="text_7">
     <!-- Год -->
     <defs>
      <path d="M 9.8125 0 
L 9.8125 72.90625 
L 55.171875 72.90625 
L 55.171875 64.59375 
L 19.671875 64.59375 
L 19.671875 0 
z
" id="DejaVuSans-1043"/>
      <path d="M 30.609375 48.390625 
Q 23.390625 48.390625 19.1875 42.75 
Q 14.984375 37.109375 14.984375 27.296875 
Q 14.984375 17.484375 19.15625 11.84375 
Q 23.34375 6.203125 30.609375 6.203125 
Q 37.796875 6.203125 41.984375 11.859375 
Q 46.1875 17.53125 46.1875 27.296875 
Q 46.1875 37.015625 41.984375 42.703125 
Q 37.796875 48.390625 30.609375 48.390625 
z
M 30.609375 56 
Q 42.328125 56 49.015625 48.375 
Q 55.71875 40.765625 55.71875 27.296875 
Q 55.71875 13.875 49.015625 6.21875 
Q 42.328125 -1.421875 30.609375 -1.421875 
Q 18.84375 -1.421875 12.171875 6.21875 
Q 5.515625 13.875 5.515625 27.296875 
Q 5.515625 40.765625 12.171875 48.375 
Q 18.84375 56 30.609375 56 
z
" id="DejaVuSans-1086"/>
      <path d="M 21.625 7.171875 
L 47.703125 7.171875 
L 47.703125 47.515625 
L 28.8125 47.515625 
L 28.8125 40.671875 
Q 28.8125 20.5625 23.046875 9.8125 
z
M 8.59375 7.171875 
Q 13.03125 9.125 14.984375 13.28125 
Q 19.78125 23.578125 19.78125 44.34375 
L 19.78125 54.6875 
L 56.734375 54.6875 
L 56.734375 7.171875 
L 63.921875 7.171875 
L 63.921875 -13.8125 
L 56.734375 -13.8125 
L 56.734375 0 
L 12.40625 0 
L 12.40625 -13.8125 
L 5.21875 -13.8125 
L 5.21875 7.171875 
z
" id="DejaVuSans-1076"/>
     </defs>
     <g transform="translate(366.768125 406.248438)scale(0.22 -0.22)">
      <use xlink:href="#DejaVuSans-1043"/>
      <use x="60.986328" xlink:href="#DejaVuSans-1086"/>
      <use x="122.167969" xlink:href="#DejaVuSans-1076"/>
     </g>
    </g>
   </g>
   <g id="matplotlib.axis_2">
    <g id="ytick_1">
     <g id="line2d_13">
      <path clip-path="url(#p738504d449)" d="M 82.885 357.24 
L 692.74 357.24 
" style="fill:none;stroke:#b0b0b0;stroke-dasharray:1,1.65;stroke-dashoffset:0;"/>
     </g>
     <g id="line2d_14">
      <defs>
       <path d="M 0 0 
L -3.5 0 
" id="mf7d7d76e08" style="stroke:#000000;stroke-width:0.8;"/>
      </defs>
      <g>
       <use style="stroke:#000000;stroke-width:0.8;" x="82.885" xlink:href="#mf7d7d76e08" y="357.24"/>
      </g>
     </g>
     <g id="text_8">
      <!-- 0 -->
      <g transform="translate(61.8875 365.598281)scale(0.22 -0.22)">
       <use xlink:href="#DejaVuSans-48"/>
      </g>
     </g>
    </g>
    <g id="ytick_2">
     <g id="line2d_15">
      <path clip-path="url(#p738504d449)" d="M 82.885 292.144075 
L 692.74 292.144075 
" style="fill:none;stroke:#b0b0b0;stroke-dasharray:1,1.65;stroke-dashoffset:0;"/>
     </g>
     <g id="line2d_16">
      <g>
       <use style="stroke:#000000;stroke-width:0.8;" x="82.885" xlink:href="#mf7d7d76e08" y="292.144075"/>
      </g>
     </g>
     <g id="text_9">
      <!-- 2 -->
      <g transform="translate(61.8875 300.502356)scale(0.22 -0.22)">
       <use xlink:href="#DejaVuSans-50"/>
      </g>
     </g>
    </g>
    <g id="ytick_3">
     <g id="line2d_17">
      <path clip-path="url(#p738504d449)" d="M 82.885 227.048149 
L 692.74 227.048149 
" style="fill:none;stroke:#b0b0b0;stroke-dasharray:1,1.65;stroke-dashoffset:0;"/>
     </g>
     <g id="line2d_18">
      <g>
       <use style="stroke:#000000;stroke-width:0.8;" x="82.885" xlink:href="#mf7d7d76e08" y="227.048149"/>
      </g>
     </g>
     <g id="text_10">
      <!-- 4 -->
      <g transform="translate(61.8875 235.406431)scale(0.22 -0.22)">
       <use xlink:href="#DejaVuSans-52"/>
      </g>
     </g>
    </g>
    <g id="ytick_4">
     <g id="line2d_19">
      <path clip-path="url(#p738504d449)" d="M 82.885 161.952224 
L 692.74 161.952224 
" style="fill:none;stroke:#b0b0b0;stroke-dasharray:1,1.65;stroke-dashoffset:0;"/>
     </g>
     <g id="line2d_20">
      <g>
       <use style="stroke:#000000;stroke-width:0.8;" x="82.885" xlink:href="#mf7d7d76e08" y="161.952224"/>
      </g>
     </g>
     <g id="text_11">
      <!-- 6 -->
      <defs>
       <path d="M 33.015625 40.375 
Q 26.375 40.375 22.484375 35.828125 
Q 18.609375 31.296875 18.609375 23.390625 
Q 18.609375 15.53125 22.484375 10.953125 
Q 26.375 6.390625 33.015625 6.390625 
Q 39.65625 6.390625 43.53125 10.953125 
Q 47.40625 15.53125 47.40625 23.390625 
Q 47.40625 31.296875 43.53125 35.828125 
Q 39.65625 40.375 33.015625 40.375 
z
M 52.59375 71.296875 
L 52.59375 62.3125 
Q 48.875 64.0625 45.09375 64.984375 
Q 41.3125 65.921875 37.59375 65.921875 
Q 27.828125 65.921875 22.671875 59.328125 
Q 17.53125 52.734375 16.796875 39.40625 
Q 19.671875 43.65625 24.015625 45.921875 
Q 28.375 48.1875 33.59375 48.1875 
Q 44.578125 48.1875 50.953125 41.515625 
Q 57.328125 34.859375 57.328125 23.390625 
Q 57.328125 12.15625 50.6875 5.359375 
Q 44.046875 -1.421875 33.015625 -1.421875 
Q 20.359375 -1.421875 13.671875 8.265625 
Q 6.984375 17.96875 6.984375 36.375 
Q 6.984375 53.65625 15.1875 63.9375 
Q 23.390625 74.21875 37.203125 74.21875 
Q 40.921875 74.21875 44.703125 73.484375 
Q 48.484375 72.75 52.59375 71.296875 
z
" id="DejaVuSans-54"/>
      </defs>
      <g transform="translate(61.8875 170.310505)scale(0.22 -0.22)">
       <use xlink:href="#DejaVuSans-54"/>
      </g>
     </g>
    </g>
    <g id="ytick_5">
     <g id="line2d_21">
      <path clip-path="url(#p738504d449)" d="M 82.885 96.856299 
L 692.74 96.856299 
" style="fill:none;stroke:#b0b0b0;stroke-dasharray:1,1.65;stroke-dashoffset:0;"/>
     </g>
     <g id="line2d_22">
      <g>
       <use style="stroke:#000000;stroke-width:0.8;" x="82.885" xlink:href="#mf7d7d76e08" y="96.856299"/>
      </g>
     </g>
     <g id="text_12">
      <!-- 8 -->
      <defs>
       <path d="M 31.78125 34.625 
Q 24.75 34.625 20.71875 30.859375 
Q 16.703125 27.09375 16.703125 20.515625 
Q 16.703125 13.921875 20.71875 10.15625 
Q 24.75 6.390625 31.78125 6.390625 
Q 38.8125 6.390625 42.859375 10.171875 
Q 46.921875 13.96875 46.921875 20.515625 
Q 46.921875 27.09375 42.890625 30.859375 
Q 38.875 34.625 31.78125 34.625 
z
M 21.921875 38.8125 
Q 15.578125 40.375 12.03125 44.71875 
Q 8.5 49.078125 8.5 55.328125 
Q 8.5 64.0625 14.71875 69.140625 
Q 20.953125 74.21875 31.78125 74.21875 
Q 42.671875 74.21875 48.875 69.140625 
Q 55.078125 64.0625 55.078125 55.328125 
Q 55.078125 49.078125 51.53125 44.71875 
Q 48 40.375 41.703125 38.8125 
Q 48.828125 37.15625 52.796875 32.3125 
Q 56.78125 27.484375 56.78125 20.515625 
Q 56.78125 9.90625 50.3125 4.234375 
Q 43.84375 -1.421875 31.78125 -1.421875 
Q 19.734375 -1.421875 13.25 4.234375 
Q 6.78125 9.90625 6.78125 20.515625 
Q 6.78125 27.484375 10.78125 32.3125 
Q 14.796875 37.15625 21.921875 38.8125 
z
M 18.3125 54.390625 
Q 18.3125 48.734375 21.84375 45.5625 
Q 25.390625 42.390625 31.78125 42.390625 
Q 38.140625 42.390625 41.71875 45.5625 
Q 45.3125 48.734375 45.3125 54.390625 
Q 45.3125 60.0625 41.71875 63.234375 
Q 38.140625 66.40625 31.78125 66.40625 
Q 25.390625 66.40625 21.84375 63.234375 
Q 18.3125 60.0625 18.3125 54.390625 
z
" id="DejaVuSans-56"/>
      </defs>
      <g transform="translate(61.8875 105.21458)scale(0.22 -0.22)">
       <use xlink:href="#DejaVuSans-56"/>
      </g>
     </g>
    </g>
    <g id="ytick_6">
     <g id="line2d_23">
      <path clip-path="url(#p738504d449)" d="M 82.885 31.760373 
L 692.74 31.760373 
" style="fill:none;stroke:#b0b0b0;stroke-dasharray:1,1.65;stroke-dashoffset:0;"/>
     </g>
     <g id="line2d_24">
      <g>
       <use style="stroke:#000000;stroke-width:0.8;" x="82.885" xlink:href="#mf7d7d76e08" y="31.760373"/>
      </g>
     </g>
     <g id="text_13">
      <!-- 10 -->
      <g transform="translate(47.89 40.118654)scale(0.22 -0.22)">
       <use xlink:href="#DejaVuSans-49"/>
       <use x="63.623047" xlink:href="#DejaVuSans-48"/>
      </g>
     </g>
    </g>
    <g id="text_14">
     <!-- 1/HHI -->
     <defs>
      <path d="M 25.390625 72.90625 
L 33.6875 72.90625 
L 8.296875 -9.28125 
L 0 -9.28125 
z
" id="DejaVuSans-47"/>
      <path d="M 9.8125 72.90625 
L 19.671875 72.90625 
L 19.671875 43.015625 
L 55.515625 43.015625 
L 55.515625 72.90625 
L 65.375 72.90625 
L 65.375 0 
L 55.515625 0 
L 55.515625 34.71875 
L 19.671875 34.71875 
L 19.671875 0 
L 9.8125 0 
z
" id="DejaVuSans-72"/>
      <path d="M 9.8125 72.90625 
L 19.671875 72.90625 
L 19.671875 0 
L 9.8125 0 
z
" id="DejaVuSans-73"/>
     </defs>
     <g transform="translate(39.314687 225.067631)rotate(-90)scale(0.22 -0.22)">
      <use xlink:href="#DejaVuSans-49"/>
      <use x="63.623047" xlink:href="#DejaVuSans-47"/>
      <use x="97.314453" xlink:href="#DejaVuSans-72"/>
      <use x="172.509766" xlink:href="#DejaVuSans-72"/>
      <use x="247.705078" xlink:href="#DejaVuSans-73"/>
     </g>
    </g>
   </g>
   <g id="line2d_25">
    <path clip-path="url(#p738504d449)" d="M 110.605682 186.308593 
L 121.693955 210.666671 
L 132.782227 229.548352 
L 143.8705 246.736191 
L 154.958773 261.546702 
L 166.047045 272.111624 
L 177.135318 281.479469 
L 188.223591 287.191828 
L 199.311864 291.462397 
L 210.400136 293.865061 
L 221.488409 296.03684 
L 232.576682 300.008668 
L 243.664955 303.069908 
L 254.753227 303.753037 
L 265.8415 307.991416 
L 276.929773 311.10199 
L 288.018045 316.048441 
L 299.106318 317.334817 
L 310.194591 318.333258 
L 321.282864 318.71561 
L 332.371136 319.046403 
L 343.459409 319.206106 
L 354.547682 319.733379 
L 365.635955 320.962581 
L 376.724227 321.294315 
L 387.8125 321.463832 
L 398.900773 321.99946 
L 409.989045 321.954142 
L 421.077318 322.764115 
L 432.165591 323.378232 
L 443.253864 323.800608 
L 454.342136 324.084204 
L 465.430409 324.264469 
L 476.518682 324.399784 
L 487.606955 324.485172 
L 498.695227 324.542922 
L 509.7835 324.591277 
L 520.871773 324.624184 
L 531.960045 324.647213 
L 543.048318 324.660735 
L 554.136591 324.670846 
L 565.224864 324.677335 
L 576.313136 324.681773 
L 587.401409 324.685043 
L 598.489682 324.687187 
L 609.577955 324.688681 
L 620.666227 324.689734 
L 631.7545 324.690438 
L 642.842773 324.690908 
L 653.931045 324.691297 
L 665.019318 324.69154 
" style="fill:none;stroke:#000000;stroke-linecap:square;stroke-width:1.5;"/>
   </g>
   <g id="line2d_26">
    <path clip-path="url(#p738504d449)" d="M 110.605682 103.189444 
L 121.693955 124.852629 
L 132.782227 144.89469 
L 143.8705 156.202008 
L 154.958773 169.793269 
L 166.047045 185.603568 
L 177.135318 195.13988 
L 188.223591 202.543155 
L 199.311864 212.463362 
L 210.400136 218.76016 
L 221.488409 223.094789 
L 232.576682 226.587055 
L 243.664955 228.661585 
L 254.753227 230.174328 
L 265.8415 231.383173 
L 276.929773 232.189634 
L 288.018045 232.529039 
L 299.106318 232.867436 
L 310.194591 233.086314 
L 321.282864 232.746837 
L 332.371136 232.850464 
L 343.459409 232.930016 
L 354.547682 233.399379 
L 365.635955 233.412926 
L 376.724227 233.438485 
L 387.8125 232.882311 
L 398.900773 232.483822 
L 409.989045 234.015561 
L 421.077318 233.560424 
L 432.165591 233.574042 
L 443.253864 233.983304 
L 454.342136 234.039974 
L 465.430409 233.968462 
L 476.518682 233.969461 
L 487.606955 233.93405 
L 498.695227 231.558134 
L 509.7835 231.558435 
L 520.871773 231.989265 
L 531.960045 231.665252 
L 543.048318 233.152115 
L 554.136591 233.199359 
L 565.224864 233.173404 
L 576.313136 233.166297 
L 587.401409 233.161273 
L 598.489682 233.522945 
L 609.577955 233.522957 
L 620.666227 233.541317 
L 631.7545 231.670164 
L 642.842773 231.670168 
L 653.931045 231.662387 
L 665.019318 231.565516 
" style="fill:none;stroke:#000000;stroke-linecap:square;stroke-width:1.5;"/>
   </g>
   <g id="line2d_27">
    <path clip-path="url(#p738504d449)" d="M 110.605682 174.878616 
L 121.693955 191.674521 
L 132.782227 203.821051 
L 143.8705 218.27867 
L 154.958773 228.410251 
L 166.047045 236.097173 
L 177.135318 243.284867 
L 188.223591 246.206086 
L 199.311864 248.287433 
L 210.400136 250.945418 
L 221.488409 258.36228 
L 232.576682 262.732313 
L 243.664955 267.81682 
L 254.753227 270.935135 
L 265.8415 275.400149 
L 276.929773 277.703426 
L 288.018045 279.648587 
L 299.106318 282.059907 
L 310.194591 283.4055 
L 321.282864 284.358402 
L 332.371136 285.872213 
L 343.459409 286.381847 
L 354.547682 286.890533 
L 365.635955 287.069388 
L 376.724227 287.224484 
L 387.8125 286.198338 
L 398.900773 286.271098 
L 409.989045 285.855274 
L 421.077318 285.63637 
L 432.165591 285.658526 
L 443.253864 285.355127 
L 454.342136 285.366757 
L 465.430409 285.374963 
L 476.518682 285.330621 
L 487.606955 285.333883 
L 498.695227 285.310526 
L 509.7835 284.878341 
L 520.871773 285.843965 
L 531.960045 285.844738 
L 543.048318 285.513659 
L 554.136591 288.223926 
L 565.224864 288.826772 
L 576.313136 288.826971 
L 587.401409 289.982428 
L 598.489682 291.646892 
L 609.577955 291.572574 
L 620.666227 291.542872 
L 631.7545 291.058234 
L 642.842773 292.326563 
L 653.931045 293.384023 
L 665.019318 294.304462 
" style="fill:none;stroke:#000000;stroke-linecap:square;stroke-width:1.5;"/>
   </g>
   <g id="line2d_28">
    <path clip-path="url(#p738504d449)" d="M 110.605682 168.207385 
L 121.693955 187.194712 
L 132.782227 194.189948 
L 143.8705 216.504434 
L 154.958773 232.240237 
L 166.047045 246.220334 
L 177.135318 254.151077 
L 188.223591 260.973527 
L 199.311864 265.027574 
L 210.400136 268.236217 
L 221.488409 270.340576 
L 232.576682 271.870748 
L 243.664955 272.897273 
L 254.753227 273.654092 
L 265.8415 273.832891 
L 276.929773 274.16395 
L 288.018045 275.610533 
L 299.106318 275.72593 
L 310.194591 277.285908 
L 321.282864 278.334323 
L 332.371136 278.618514 
L 343.459409 278.650412 
L 354.547682 278.736226 
L 365.635955 279.069213 
L 376.724227 279.070479 
L 387.8125 278.319513 
L 398.900773 279.643066 
L 409.989045 279.646752 
L 421.077318 283.519805 
L 432.165591 284.064373 
L 443.253864 283.767592 
L 454.342136 286.752198 
L 465.430409 289.168862 
L 476.518682 288.352887 
L 487.606955 290.396351 
L 498.695227 290.403613 
L 509.7835 291.663706 
L 520.871773 292.548332 
L 531.960045 293.140562 
L 543.048318 293.538691 
L 554.136591 293.86659 
L 565.224864 294.06692 
L 576.313136 294.200397 
L 587.401409 294.306614 
L 598.489682 294.377165 
L 609.577955 294.41856 
L 620.666227 294.446481 
L 631.7545 294.468206 
L 642.842773 294.48281 
L 653.931045 294.493067 
L 665.019318 294.49924 
" style="fill:none;stroke:#000000;stroke-linecap:square;stroke-width:1.5;"/>
   </g>
   <g id="line2d_29">
    <path clip-path="url(#p738504d449)" d="M 110.605682 110.03606 
L 121.693955 132.083203 
L 132.782227 151.845414 
L 143.8705 174.209821 
L 154.958773 194.792267 
L 166.047045 210.605029 
L 177.135318 220.532115 
L 188.223591 230.661581 
L 199.311864 238.061397 
L 210.400136 242.55545 
L 221.488409 245.173039 
L 232.576682 247.4526 
L 243.664955 249.640703 
L 254.753227 250.969647 
L 265.8415 252.748401 
L 276.929773 252.64278 
L 288.018045 253.120318 
L 299.106318 253.347366 
L 310.194591 253.490199 
L 321.282864 253.593368 
L 332.371136 253.596198 
L 343.459409 253.47588 
L 354.547682 253.513532 
L 365.635955 253.74228 
L 376.724227 253.723736 
L 387.8125 253.360005 
L 398.900773 253.565755 
L 409.989045 253.661993 
L 421.077318 253.740083 
L 432.165591 253.832369 
L 443.253864 252.947571 
L 454.342136 254.450209 
L 465.430409 254.802951 
L 476.518682 254.936614 
L 487.606955 253.967476 
L 498.695227 254.333351 
L 509.7835 254.246547 
L 520.871773 254.92702 
L 531.960045 254.06911 
L 543.048318 255.322161 
L 554.136591 255.716023 
L 565.224864 255.314053 
L 576.313136 255.314076 
L 587.401409 258.051112 
L 598.489682 258.211909 
L 609.577955 258.993296 
L 620.666227 259.761815 
L 631.7545 257.026387 
L 642.842773 255.889191 
L 653.931045 255.725873 
L 665.019318 256.891861 
" style="fill:none;stroke:#000000;stroke-linecap:square;stroke-width:1.5;"/>
   </g>
   <g id="line2d_30">
    <path clip-path="url(#p738504d449)" d="M 110.605682 191.041611 
L 121.693955 207.812649 
L 132.782227 212.683916 
L 143.8705 225.821376 
L 154.958773 243.034401 
L 166.047045 258.457635 
L 177.135318 268.697905 
L 188.223591 276.281472 
L 199.311864 282.568165 
L 210.400136 287.503892 
L 221.488409 290.99591 
L 232.576682 293.047742 
L 243.664955 294.653274 
L 254.753227 295.782853 
L 265.8415 296.548465 
L 276.929773 297.109376 
L 288.018045 297.473756 
L 299.106318 297.694861 
L 310.194591 297.845339 
L 321.282864 297.982965 
L 332.371136 298.067296 
L 343.459409 298.126758 
L 354.547682 298.167723 
L 365.635955 298.198078 
L 376.724227 298.21618 
L 387.8125 298.230001 
L 398.900773 298.239635 
L 409.989045 298.246197 
L 421.077318 298.251213 
L 432.165591 298.254774 
L 443.253864 298.257365 
L 454.342136 298.258895 
L 465.430409 298.259799 
L 476.518682 298.260568 
L 487.606955 298.261004 
L 498.695227 298.261333 
L 509.7835 298.26156 
L 520.871773 298.261711 
L 531.960045 298.261823 
L 543.048318 298.261894 
L 554.136591 298.261937 
L 565.224864 298.261967 
L 576.313136 298.261987 
L 587.401409 298.383562 
L 598.489682 298.383572 
L 609.577955 298.383579 
L 620.666227 298.383584 
L 631.7545 298.373661 
L 642.842773 298.373663 
L 653.931045 298.373665 
L 665.019318 298.373666 
" style="fill:none;stroke:#000000;stroke-linecap:square;stroke-width:1.5;"/>
   </g>
   <g id="line2d_31">
    <path clip-path="url(#p738504d449)" d="M 110.605682 46.504567 
L 121.693955 49.149392 
L 132.782227 45.849275 
L 143.8705 53.800623 
L 154.958773 54.73737 
L 166.047045 65.456206 
L 177.135318 73.634282 
L 188.223591 81.568806 
L 199.311864 88.885468 
L 210.400136 105.552081 
L 221.488409 115.327179 
L 232.576682 124.018321 
L 243.664955 128.155987 
L 254.753227 134.020389 
L 265.8415 141.56697 
L 276.929773 142.234992 
L 288.018045 142.999071 
L 299.106318 148.732948 
L 310.194591 151.894472 
L 321.282864 156.632975 
L 332.371136 159.560228 
L 343.459409 165.133375 
L 354.547682 166.530368 
L 365.635955 168.125571 
L 376.724227 175.659948 
L 387.8125 176.738622 
L 398.900773 175.378449 
L 409.989045 176.011622 
L 421.077318 175.86125 
L 432.165591 178.527326 
L 443.253864 181.434539 
L 454.342136 182.49861 
L 465.430409 183.092698 
L 476.518682 183.257962 
L 487.606955 185.256053 
L 498.695227 191.347045 
L 509.7835 195.602513 
L 520.871773 199.114755 
L 531.960045 201.033777 
L 543.048318 202.55664 
L 554.136591 203.737178 
L 565.224864 204.399152 
L 576.313136 204.547369 
L 587.401409 203.950524 
L 598.489682 204.539254 
L 609.577955 204.213087 
L 620.666227 204.323689 
L 631.7545 204.284735 
L 642.842773 204.182823 
L 653.931045 204.459173 
L 665.019318 204.356292 
" style="fill:none;stroke:#000000;stroke-linecap:square;stroke-width:1.5;"/>
   </g>
   <g id="line2d_32">
    <path clip-path="url(#p738504d449)" d="M 110.605682 208.78706 
L 121.693955 232.48443 
L 132.782227 255.414502 
L 143.8705 272.587731 
L 154.958773 285.612219 
L 166.047045 295.219206 
L 177.135318 303.034346 
L 188.223591 308.219078 
L 199.311864 312.397088 
L 210.400136 316.116711 
L 221.488409 318.728197 
L 232.576682 319.955307 
L 243.664955 321.597689 
L 254.753227 322.575865 
L 265.8415 323.244349 
L 276.929773 323.694518 
L 288.018045 323.994018 
L 299.106318 324.17601 
L 310.194591 324.337802 
L 321.282864 324.44183 
L 332.371136 324.510026 
L 343.459409 324.568037 
L 354.547682 324.601502 
L 365.635955 324.63127 
L 376.724227 324.650066 
L 387.8125 324.66398 
L 398.900773 324.672421 
L 409.989045 324.6783 
L 421.077318 324.682368 
L 432.165591 324.685517 
L 443.253864 324.687483 
L 454.342136 324.688922 
L 465.430409 324.689916 
L 476.518682 324.690556 
L 487.606955 324.691013 
L 498.695227 324.691358 
L 509.7835 324.691559 
L 520.871773 324.691712 
L 531.960045 324.691819 
L 543.048318 324.691894 
L 554.136591 324.691939 
L 565.224864 324.691971 
L 576.313136 324.691993 
L 587.401409 324.692007 
L 598.489682 324.692016 
L 609.577955 324.692022 
L 620.666227 324.692027 
L 631.7545 324.69203 
L 642.842773 324.692032 
L 653.931045 324.692034 
L 665.019318 324.692035 
" style="fill:none;stroke:#000000;stroke-linecap:square;stroke-width:1.5;"/>
   </g>
   <g id="line2d_33">
    <path clip-path="url(#p738504d449)" d="M 110.605682 64.035467 
L 121.693955 70.256203 
L 132.782227 83.022999 
L 143.8705 95.876356 
L 154.958773 116.505063 
L 166.047045 131.848749 
L 177.135318 149.22212 
L 188.223591 161.532564 
L 199.311864 172.220391 
L 210.400136 182.967328 
L 221.488409 195.701535 
L 232.576682 203.557177 
L 243.664955 208.261439 
L 254.753227 217.023013 
L 265.8415 219.809932 
L 276.929773 220.847905 
L 288.018045 226.201298 
L 299.106318 230.225177 
L 310.194591 232.919796 
L 321.282864 234.930132 
L 332.371136 237.850597 
L 343.459409 239.218596 
L 354.547682 237.857263 
L 365.635955 238.290254 
L 376.724227 239.081561 
L 387.8125 238.561303 
L 398.900773 238.664422 
L 409.989045 238.777057 
L 421.077318 238.836562 
L 432.165591 239.183573 
L 443.253864 240.486027 
L 454.342136 240.470666 
L 465.430409 240.399871 
L 476.518682 239.93092 
L 487.606955 239.944643 
L 498.695227 240.17636 
L 509.7835 240.188037 
L 520.871773 240.070788 
L 531.960045 240.131603 
L 543.048318 240.285001 
L 554.136591 243.978646 
L 565.224864 244.351887 
L 576.313136 244.363745 
L 587.401409 246.84975 
L 598.489682 251.999348 
L 609.577955 251.873247 
L 620.666227 255.322464 
L 631.7545 256.508062 
L 642.842773 259.021667 
L 653.931045 260.967658 
L 665.019318 262.308123 
" style="fill:none;stroke:#000000;stroke-linecap:square;stroke-width:1.5;"/>
   </g>
   <g id="line2d_34">
    <path clip-path="url(#p738504d449)" d="M 110.605682 130.013472 
L 121.693955 140.998221 
L 132.782227 148.0417 
L 143.8705 158.013598 
L 154.958773 156.769405 
L 166.047045 163.256026 
L 177.135318 180.166956 
L 188.223591 184.165273 
L 199.311864 196.972559 
L 210.400136 198.950592 
L 221.488409 204.391171 
L 232.576682 205.437309 
L 243.664955 210.635587 
L 254.753227 210.597271 
L 265.8415 211.427884 
L 276.929773 213.62321 
L 288.018045 212.880999 
L 299.106318 212.547697 
L 310.194591 209.949765 
L 321.282864 218.032159 
L 332.371136 218.569457 
L 343.459409 222.666579 
L 354.547682 228.376763 
L 365.635955 233.871034 
L 376.724227 237.197521 
L 387.8125 243.488465 
L 398.900773 249.294279 
L 409.989045 252.457375 
L 421.077318 254.470165 
L 432.165591 256.444061 
L 443.253864 256.982483 
L 454.342136 258.550408 
L 465.430409 259.065244 
L 476.518682 259.448834 
L 487.606955 257.409749 
L 498.695227 257.71496 
L 509.7835 257.845897 
L 520.871773 257.14989 
L 531.960045 258.056681 
L 543.048318 259.786586 
L 554.136591 259.815931 
L 565.224864 258.937231 
L 576.313136 258.980036 
L 587.401409 259.296826 
L 598.489682 261.03537 
L 609.577955 261.000559 
L 620.666227 264.901778 
L 631.7545 265.335224 
L 642.842773 265.867469 
L 653.931045 268.279178 
L 665.019318 268.546261 
" style="fill:none;stroke:#000000;stroke-linecap:square;stroke-width:1.5;"/>
   </g>
   <g id="patch_3">
    <path d="M 82.885 357.24 
L 82.885 31.907137 
" style="fill:none;stroke:#000000;stroke-linecap:square;stroke-linejoin:miter;stroke-width:0.8;"/>
   </g>
   <g id="patch_4">
    <path d="M 692.74 357.24 
L 692.74 31.907137 
" style="fill:none;stroke:#000000;stroke-linecap:square;stroke-linejoin:miter;stroke-width:0.8;"/>
   </g>
   <g id="patch_5">
    <path d="M 82.885 357.24 
L 692.74 357.24 
" style="fill:none;stroke:#000000;stroke-linecap:square;stroke-linejoin:miter;stroke-width:0.8;"/>
   </g>
   <g id="patch_6">
    <path d="M 82.885 31.907137 
L 692.74 31.907137 
" style="fill:none;stroke:#000000;stroke-linecap:square;stroke-linejoin:miter;stroke-width:0.8;"/>
   </g>
  </g>
 </g>
 <defs>
  <clipPath id="p738504d449">
   <rect height="325.332863" width="609.855" x="82.885" y="31.907137"/>
  </clipPath>
 </defs>
</svg>
